<svg width="625" height="351" viewBox="0 0 625 351" fill="none" xmlns="http://www.w3.org/2000/svg">
<g clip-path="url(#clip0_10_177)">
<path d="M582.665 330.565C582.496 336.887 581.437 343.154 579.52 349.181C579.478 349.32 579.431 349.458 579.385 349.598H567.65C567.662 349.473 567.675 349.333 567.687 349.181C568.469 340.182 563.999 286.066 558.605 276.699C559.078 277.459 583.575 301.972 582.665 330.565Z" fill="#F1F1F1"/>
<path d="M581.785 349.181C581.686 349.32 581.584 349.46 581.48 349.598H572.676C572.743 349.479 572.82 349.339 572.91 349.181C574.364 346.555 578.669 338.704 582.664 330.565C586.957 321.819 590.898 312.741 590.566 309.456C590.669 310.196 593.64 332.786 581.785 349.181Z" fill="#F1F1F1"/>
<path d="M32.4764 335.463C32.6022 340.158 33.3885 344.812 34.8121 349.288C34.8436 349.392 34.8787 349.494 34.9128 349.598H43.6283C43.6192 349.505 43.6097 349.401 43.6006 349.288C43.0195 342.605 46.3393 302.413 50.3453 295.457C49.9943 296.021 31.8007 314.227 32.4764 335.463Z" fill="#F1F1F1"/>
<path d="M33.1305 349.288C33.2034 349.392 33.2791 349.496 33.3568 349.598H39.8954C39.8459 349.51 39.7884 349.406 39.7218 349.288C38.6417 347.338 35.4447 341.507 32.4771 335.463C29.2892 328.967 26.3621 322.225 26.6086 319.785C26.5322 320.335 24.3253 337.112 33.1305 349.288Z" fill="#F1F1F1"/>
<path d="M458.273 246.208C392.447 218.301 332.893 219.361 276.799 236.395C190.369 221.294 131.185 223.631 93.2226 246.208V176.113H458.273V246.208Z" fill="#CBCBCB"/>
<path d="M458.273 226.932C397.628 199.443 337.057 197.668 275.573 226.932C212.598 208.793 151.719 208.983 92.8722 226.932V13.8437C155.438 -4.83722 216.298 -4.3883 275.573 13.8437C338.186 -4.32533 399.14 -4.90157 458.273 13.8437V226.932Z" fill="#E5E5E5"/>
<path d="M109.307 40.2878L107.267 35.0646C108.066 34.7521 127.171 27.3634 155.209 23.5944C181.131 20.1092 219.752 19.2771 256.535 35.1002L254.321 40.2519C218.768 24.9583 181.289 25.7636 156.108 29.1315C128.7 32.7981 109.497 40.2132 109.307 40.2878Z" fill="white"/>
<path d="M109.307 59.9144L107.267 54.6912C108.066 54.3787 127.171 46.99 155.209 43.221C181.131 39.7361 219.752 38.9041 256.535 54.7267L254.321 59.8785C218.768 44.5849 181.289 45.3896 156.108 48.7581C128.7 52.4247 109.497 59.8398 109.307 59.9144Z" fill="white"/>
<path d="M109.307 79.5408L107.267 74.3176C108.066 74.0051 127.171 66.6164 155.209 62.8475C181.131 59.3622 219.752 58.5302 256.535 74.3532L254.321 79.5049C218.768 64.2114 181.289 65.016 156.108 68.3845C128.7 72.0512 109.497 79.4662 109.307 79.5408Z" fill="white"/>
<path d="M109.307 99.1675L107.267 93.9442C108.066 93.6317 127.171 86.243 155.209 82.4741C181.131 78.9895 219.752 78.1564 256.535 93.9798L254.321 99.1315C218.768 83.838 181.289 84.643 156.108 88.0111C128.7 91.6778 109.497 99.0928 109.307 99.1675Z" fill="white"/>
<path d="M109.307 118.794L107.267 113.571C108.066 113.258 127.171 105.87 155.209 102.101C181.131 98.6154 219.752 97.7833 256.535 113.606L254.321 118.758C218.768 103.464 181.289 104.27 156.108 107.638C128.7 111.304 109.497 118.719 109.307 118.794Z" fill="white"/>
<path d="M109.307 138.421L107.267 133.197C108.066 132.885 127.171 125.496 155.209 121.727C181.131 118.243 219.752 117.41 256.535 133.233L254.321 138.385C218.768 123.091 181.289 123.896 156.108 127.264C128.7 130.931 109.497 138.346 109.307 138.421Z" fill="white"/>
<path d="M292.182 179.777L290.142 174.553C290.942 174.241 310.047 166.852 338.085 163.083C364.007 159.599 402.628 158.766 439.411 174.589L437.197 179.741C401.643 164.447 364.165 165.252 338.984 168.62C311.576 172.287 292.373 179.702 292.182 179.777Z" fill="#6C63FF"/>
<path d="M290.462 142.11V34.9136L292.429 34.2989C342.277 18.7217 391.884 18.7247 439.87 34.3082L441.807 34.9373V141.967L438.015 140.535C388.078 121.68 339.738 121.669 294.338 140.502L290.462 142.11ZM364.427 120.765C387.889 120.765 411.814 125.141 436.202 133.891V39.0218C390.578 24.628 343.449 24.6359 296.067 39.0447V133.761C317.838 125.18 341.028 120.772 364.427 120.765Z" fill="white"/>
<path d="M436.318 176.999L437.052 159.159L462.239 109.063C462.949 107.639 464.107 106.487 465.535 105.785C466.409 105.348 467.362 105.091 468.337 105.027C469.312 104.963 470.289 105.095 471.213 105.414C472.283 105.783 473.253 106.394 474.048 107.2C474.843 108.006 475.441 108.984 475.795 110.059C475.947 110.524 476.054 111.001 476.114 111.486C476.293 112.925 476.039 114.384 475.384 115.677L450.163 165.841L436.318 176.999Z" fill="#6C63FF"/>
<path d="M468.671 105.363L441.331 159.743L439.247 158.694L465.69 106.099C466.616 105.635 467.635 105.384 468.671 105.363Z" fill="#3F3D56"/>
<path d="M475.767 111.53L449.469 163.837L447.384 162.788L474.668 108.522C475.003 109.034 475.271 109.588 475.463 110.169C475.608 110.612 475.709 111.068 475.767 111.53Z" fill="#3F3D56"/>
<path d="M473.149 106.863L445.506 161.844L443.422 160.795L471.099 105.745C471.394 105.846 471.681 105.967 471.96 106.108C472.38 106.32 472.778 106.573 473.149 106.863Z" fill="#3F3D56"/>
<path d="M439.48 174.002L436.699 176.243L436.932 170.334C437.887 170.666 438.921 172.104 439.48 174.002Z" fill="#3F3D56"/>
<path d="M165.131 238.395L161.801 228.291L165.348 195.065C165.446 194.122 165.85 193.236 166.499 192.545C166.896 192.118 167.373 191.775 167.903 191.535C168.434 191.295 169.007 191.163 169.589 191.147C170.263 191.129 170.932 191.266 171.544 191.549C172.157 191.831 172.695 192.252 173.119 192.777C173.301 193.004 173.46 193.248 173.595 193.506C173.997 194.271 174.161 195.138 174.067 195.997L170.514 229.267L165.131 238.395Z" fill="#6C63FF"/>
<path d="M168.161 191.652L164.31 227.719L162.927 227.571L166.652 192.688C167.071 192.235 167.587 191.881 168.161 191.652Z" fill="#3F3D56"/>
<path d="M173.411 193.604L169.707 228.295L168.324 228.148L172.167 192.156C172.462 192.371 172.727 192.624 172.956 192.908C173.13 193.125 173.282 193.358 173.411 193.604Z" fill="#3F3D56"/>
<path d="M170.972 191.549L167.079 228.015L165.696 227.867L169.595 191.356C169.78 191.35 169.966 191.358 170.151 191.378C170.43 191.408 170.705 191.465 170.972 191.549Z" fill="#3F3D56"/>
<path d="M166.266 236.06L165.184 237.894L164.076 234.549C164.678 234.534 165.556 235.119 166.266 236.06Z" fill="#3F3D56"/>
<path d="M525.813 226.546C525.433 227.21 524.927 227.792 524.323 228.26C523.718 228.728 523.028 229.072 522.29 229.273C520.801 229.679 519.212 229.476 517.872 228.71C516.532 227.944 515.552 226.676 515.146 225.187C514.74 223.697 514.943 222.107 515.709 220.767C515.722 220.744 515.735 220.721 515.748 220.699C515.911 220.426 516.094 220.166 516.296 219.921L511.401 185.017L511.255 183.971L510.26 176.848L510.114 175.822L510.656 175.847L520.14 176.281L522.683 176.396L523.002 182.893L524.806 219.423C525.748 220.325 526.36 221.518 526.542 222.81C526.725 224.102 526.468 225.418 525.813 226.546Z" fill="#FFB8B8"/>
<path d="M511.283 184.287L523.326 183.182C523.951 183.123 524.527 182.819 524.928 182.337C525.33 181.855 525.525 181.233 525.47 180.608L523.24 155.554C523.024 153.141 521.859 150.912 520.001 149.358C518.144 147.804 515.745 147.052 513.333 147.268C510.92 147.483 508.693 148.648 507.139 150.507C505.586 152.366 504.834 154.765 505.05 157.179C505.065 157.351 505.085 157.523 505.11 157.695L508.722 182.269C508.805 182.832 509.087 183.347 509.517 183.719C509.948 184.091 510.497 184.296 511.066 184.297C511.138 184.299 511.211 184.295 511.283 184.287Z" fill="#CBCBCB"/>
<path d="M520.411 164.047C521.629 160.595 521.686 156.84 520.572 153.353C519.458 149.866 517.235 146.839 514.242 144.734C509.701 141.626 503.486 140.51 496.794 148.48C488.695 158.21 482.919 169.659 479.903 181.956L507.311 186.419C507.311 186.419 516.631 175.022 520.411 164.047Z" fill="#CBCBCB"/>
<path d="M476.083 343.609H468.269L464.552 313.456H476.084L476.083 343.609Z" fill="#FFB8B8"/>
<path d="M453.2 350.867H477.76V341.375H462.689C460.173 341.375 457.759 342.375 455.98 344.155C454.2 345.935 453.2 348.35 453.2 350.867Z" fill="#2F2E41"/>
<path d="M540.328 336.791L532.909 339.244L519.919 311.783L530.869 308.161L540.328 336.791Z" fill="#FFB8B8"/>
<path d="M520.877 350.867L544.195 343.157L541.217 334.144L526.908 338.875C524.519 339.665 522.541 341.372 521.41 343.621C520.279 345.87 520.087 348.477 520.877 350.867Z" fill="#2F2E41"/>
<path d="M503.206 136.828C511.852 136.828 518.861 129.816 518.861 121.167C518.861 112.518 511.852 105.506 503.206 105.506C494.561 105.506 487.552 112.518 487.552 121.167C487.552 129.816 494.561 136.828 503.206 136.828Z" fill="#FFB8B8"/>
<path d="M489.499 335.216L496.756 287.3C496.834 286.789 497.086 286.321 497.471 285.975C497.855 285.629 498.348 285.428 498.864 285.405C499.381 285.383 499.889 285.54 500.302 285.851C500.716 286.162 501.008 286.607 501.13 287.109L512.181 332.772C512.355 333.471 512.784 334.08 513.384 334.48C513.984 334.879 514.712 335.04 515.424 334.93L545.907 330.029C546.311 329.964 546.697 329.814 547.038 329.587C547.379 329.361 547.668 329.064 547.885 328.717C548.102 328.369 548.242 327.979 548.296 327.574C548.349 327.167 548.316 326.755 548.197 326.363L508.449 195.265C508.336 194.892 508.323 194.496 508.41 194.117L509.733 188.378C509.879 187.756 509.812 187.103 509.543 186.524C509.274 185.944 508.819 185.472 508.25 185.181C502.837 182.418 489.128 176.674 478.783 182.966C478.447 183.171 478.157 183.442 477.929 183.763C477.701 184.084 477.541 184.448 477.458 184.832L446.407 330.832C446.323 331.229 446.323 331.639 446.409 332.036C446.495 332.433 446.664 332.807 446.905 333.133C447.146 333.46 447.453 333.732 447.807 333.931C448.161 334.13 448.552 334.251 448.957 334.287L486.407 337.643C486.492 337.65 486.577 337.654 486.662 337.654C487.348 337.653 488.011 337.406 488.531 336.959C489.051 336.512 489.394 335.893 489.498 335.215L489.499 335.216Z" fill="#2F2E41"/>
<path d="M513.587 110.102C512.407 109.392 511.36 108.481 510.492 107.411C510.064 106.871 509.782 106.229 509.674 105.547C509.566 104.866 509.635 104.168 509.874 103.522C510.665 101.776 513.015 101.226 514.837 101.819C516.659 102.411 518.065 103.841 519.396 105.219C520.568 106.431 521.774 107.701 522.328 109.294C522.882 110.888 522.598 112.908 521.215 113.876C519.858 114.824 517.906 114.436 516.6 113.417C515.368 112.303 514.385 110.94 513.716 109.419L513.587 110.102Z" fill="#2F2E41"/>
<path d="M518.889 105.64C518.976 101.227 524.004 98.0628 528.346 98.8452C532.689 99.6275 536.026 103.331 537.697 107.416C541.227 116.046 538.577 125.894 535.176 134.579C531.775 143.264 527.565 152.075 528.062 161.387C528.398 166.42 530.086 171.269 532.949 175.422C535.811 179.574 539.742 182.877 544.325 184.98C539.425 187.202 533.567 184.906 529.449 181.442C520.304 173.749 516.774 160.052 521.06 148.895C523.175 143.391 526.901 138.683 529.81 133.556C532.719 128.428 534.853 122.385 533.351 116.684C531.849 110.983 525.457 106.368 519.993 108.574L518.889 105.64Z" fill="#2F2E41"/>
<path d="M502.268 128.117C503.632 125.81 505.008 122.781 502.515 120.764C501.973 120.345 501.352 120.04 500.69 119.864C500.028 119.689 499.337 119.648 498.659 119.744C495.847 120.083 492.784 120.223 490.062 119.2C489.041 118.849 488.101 118.296 487.298 117.574C486.495 116.852 485.845 115.976 485.386 114.998C483.984 111.667 485.741 107.619 488.679 105.514C490.476 104.272 492.599 103.589 494.783 103.551C496.967 103.512 499.113 104.119 500.953 105.296C504.759 103.615 509.375 104.363 512.832 106.677C516.289 108.992 518.655 112.698 519.94 116.656C521.124 120.063 521.327 123.734 520.528 127.251C519.885 129.697 518.662 131.953 516.963 133.826C515.263 135.7 513.138 137.136 510.766 138.013C509.842 138.378 508.839 138.493 507.856 138.348C506.874 138.202 505.947 137.801 505.168 137.184C503.903 136.049 502.931 134.624 502.336 133.031C501.816 131.286 501.539 129.349 502.268 128.117Z" fill="#2F2E41"/>
<path d="M455.826 142.091C455.905 142.435 455.956 142.785 455.979 143.137L483.359 158.939L490.014 155.106L497.109 164.397L485.986 172.328C485.088 172.969 484.005 173.301 482.902 173.274C481.799 173.247 480.734 172.863 479.867 172.179L451.631 149.896C450.357 150.369 448.968 150.442 447.652 150.105C446.335 149.769 445.151 149.04 444.259 148.014C443.366 146.988 442.807 145.715 442.656 144.364C442.504 143.013 442.768 141.647 443.411 140.45C444.054 139.252 445.047 138.278 446.256 137.659C447.466 137.039 448.836 136.802 450.184 136.981C451.531 137.159 452.792 137.743 453.8 138.656C454.807 139.569 455.513 140.767 455.823 142.091L455.826 142.091Z" fill="#FFB8B8"/>
<path d="M484.275 159.687L493.124 171.161C493.376 171.487 493.695 171.755 494.06 171.946C494.424 172.138 494.826 172.249 495.237 172.272C495.648 172.294 496.06 172.228 496.443 172.077C496.826 171.927 497.173 171.695 497.459 171.399L507.476 160.992C508.319 160.368 509.03 159.584 509.57 158.685C510.109 157.786 510.466 156.789 510.619 155.752C510.773 154.714 510.72 153.657 510.464 152.64C510.209 151.623 509.755 150.667 509.129 149.826C508.503 148.984 507.718 148.275 506.818 147.738C505.917 147.201 504.92 146.847 503.883 146.696C502.845 146.546 501.788 146.601 500.773 146.86C499.757 147.119 498.802 147.575 497.963 148.204C497.876 148.268 497.791 148.334 497.707 148.402L485.143 155.43C484.783 155.632 484.471 155.908 484.228 156.241C483.985 156.574 483.816 156.955 483.734 157.359C483.651 157.763 483.656 158.18 483.75 158.582C483.843 158.984 484.021 159.361 484.273 159.687H484.275Z" fill="#CBCBCB"/>
<path d="M146.127 342.63L154.621 342.629L158.662 309.852L146.125 309.853L146.127 342.63Z" fill="#A0616A"/>
<path d="M143.96 339.855L160.689 339.855H160.689C163.517 339.855 166.228 340.979 168.227 342.979C170.227 344.979 171.35 347.691 171.35 350.52V350.866L143.96 350.867L143.96 339.855Z" fill="#2F2E41"/>
<path d="M79.986 338.951L88.385 340.222L97.2786 308.417L86.2675 306.542L79.986 338.951Z" fill="#A0616A"/>
<path d="M78.2578 335.884L94.7986 338.385C97.5942 338.808 100.108 340.325 101.786 342.601C103.464 344.878 104.169 347.728 103.747 350.524L103.695 350.867L76.6128 346.772L78.2578 335.884Z" fill="#2F2E41"/>
<path d="M106.176 180.193L115.608 182.665L114.981 197.962L114.903 225.814C115.832 226.457 116.544 227.367 116.945 228.424C117.346 229.48 117.417 230.634 117.148 231.732C116.88 232.83 116.284 233.82 115.441 234.572C114.597 235.324 113.546 235.802 112.425 235.943C111.304 236.084 110.166 235.881 109.163 235.361C108.16 234.841 107.338 234.029 106.806 233.032C106.275 232.034 106.058 230.899 106.185 229.776C106.312 228.653 106.777 227.595 107.519 226.742L104.62 198.789L106.176 180.193Z" fill="#A0616A"/>
<path d="M104.535 162.671C104.587 161.193 105.063 159.761 105.907 158.546C106.751 157.332 107.927 156.386 109.294 155.822C110.574 155.249 111.993 155.063 113.377 155.285C114.761 155.508 116.05 156.13 117.086 157.075C117.83 157.741 118.42 158.561 118.816 159.478C119.211 160.395 119.401 161.387 119.373 162.385C119.398 171.346 117.376 184.409 117.356 184.539L117.323 184.747L103.537 189.391L104.535 162.671Z" fill="#CBCBCB"/>
<path d="M129.184 188.11L150.27 182.649L160.017 215.489L160.364 337.829L144.239 337.728L137.499 238.709L94.541 330.204L77.2192 328.125L114.981 230.045C114.981 230.045 112.902 212.716 119.484 204.052L118.099 195.041L129.184 188.11Z" fill="#2F2E41"/>
<path d="M114.967 196.28C114.672 195.922 114.458 195.504 114.339 195.055C114.22 194.607 114.199 194.138 114.277 193.68L104.659 164.814C104.21 163.465 104.163 162.014 104.522 160.638C104.881 159.262 105.633 158.02 106.684 157.063L110.859 153.267L113.689 141.944L129.952 145.921L128.612 151.283L135.972 149.944L151.474 184.485L119.07 197.442L117.474 197.467C116.994 197.468 116.52 197.362 116.087 197.157C115.653 196.951 115.27 196.652 114.967 196.28Z" fill="#CBCBCB"/>
<path d="M137.539 171.908L146.831 168.954L154.474 182.218L169.29 205.798C170.419 205.845 171.507 206.233 172.411 206.912C173.314 207.59 173.991 208.527 174.35 209.599C174.71 210.67 174.736 211.826 174.425 212.912C174.114 213.999 173.48 214.965 172.608 215.684C171.736 216.402 170.666 216.839 169.541 216.936C168.415 217.033 167.286 216.786 166.304 216.228C165.322 215.669 164.532 214.826 164.04 213.809C163.547 212.791 163.375 211.649 163.546 210.531L146.16 188.456L137.539 171.908Z" fill="#A0616A"/>
<path d="M126.789 157.977C126.043 156.7 125.681 155.235 125.745 153.757C125.809 152.279 126.298 150.851 127.152 149.644C127.928 148.476 129.027 147.56 130.316 147.008C131.605 146.456 133.026 146.292 134.407 146.537C135.391 146.701 136.328 147.078 137.152 147.642C137.976 148.206 138.667 148.942 139.177 149.801C143.986 157.361 149.257 169.482 149.309 169.604L149.393 169.796L140.223 181.093L126.789 157.977Z" fill="#CBCBCB"/>
<path d="M125.721 139.837C132.857 139.837 138.642 134.05 138.642 126.911C138.642 119.772 132.857 113.984 125.721 113.984C118.585 113.984 112.8 119.772 112.8 126.911C112.8 134.05 118.585 139.837 125.721 139.837Z" fill="#A0616A"/>
<path d="M102.886 121.458C109.76 121.458 115.333 115.884 115.333 109.007C115.333 102.13 109.76 96.5557 102.886 96.5557C96.0124 96.5557 90.4399 102.13 90.4399 109.007C90.4399 115.884 96.0124 121.458 102.886 121.458Z" fill="#2F2E41"/>
<path d="M92.1507 119.318C93.7616 120.482 95.628 121.244 97.5937 121.54C99.5593 121.835 101.567 121.655 103.449 121.015C105.331 120.375 107.032 119.293 108.41 117.86C109.789 116.427 110.804 114.685 111.371 112.78C111.157 114.487 110.59 116.132 109.708 117.61C108.826 119.088 107.647 120.367 106.246 121.366C104.845 122.365 103.252 123.063 101.568 123.415C99.8835 123.767 98.1445 123.766 96.4607 123.412C94.7769 123.058 93.1847 122.358 91.7848 121.357C90.3848 120.357 89.2075 119.076 88.3271 117.597C87.4467 116.118 86.8823 114.473 86.6697 112.765C86.4571 111.057 86.6007 109.323 87.0916 107.673C86.8128 109.89 87.1354 112.14 88.0255 114.189C88.9157 116.238 90.3405 118.009 92.1507 119.318Z" fill="#2F2E41"/>
<path d="M141.27 119.331C139.097 115.44 138.266 113.814 135.464 111.448C132.987 109.355 129.939 108.74 127.481 110.723C124.574 109.467 121.338 109.182 118.256 109.911C115.173 110.64 112.408 112.344 110.371 114.771C108.334 117.198 107.133 120.217 106.948 123.38C106.763 126.543 107.603 129.682 109.342 132.33C111.082 134.978 113.63 136.994 116.606 138.078C119.582 139.163 122.829 139.257 125.863 138.349C128.898 137.44 131.559 135.577 133.45 133.035C135.342 130.493 136.363 127.409 136.363 124.24C136.361 123.684 136.327 123.128 136.263 122.575C138.399 122.275 139.133 119.632 141.27 119.331Z" fill="#2F2E41"/>
<path d="M267.657 351H0.700673C0.514843 351 0.336623 350.926 0.205222 350.795C0.0738201 350.663 0 350.485 0 350.299C0 350.113 0.0738201 349.935 0.205222 349.803C0.336623 349.672 0.514843 349.598 0.700673 349.598H267.657C267.843 349.598 268.021 349.672 268.152 349.803C268.284 349.935 268.358 350.113 268.358 350.299C268.358 350.485 268.284 350.663 268.152 350.795C268.021 350.926 267.843 351 267.657 351Z" fill="#CBCBCB"/>
<path d="M624.299 351H357.343C357.157 351 356.979 350.926 356.848 350.795C356.716 350.663 356.642 350.485 356.642 350.299C356.642 350.113 356.716 349.935 356.848 349.803C356.979 349.672 357.157 349.598 357.343 349.598H624.299C624.485 349.598 624.663 349.672 624.795 349.803C624.926 349.935 625 350.113 625 350.299C625 350.485 624.926 350.663 624.795 350.795C624.663 350.926 624.485 351 624.299 351Z" fill="#CBCBCB"/>
<path d="M276.273 13.8438H274.872V226.258H276.273V13.8438Z" fill="#CBCBCB"/>
</g>
<defs>
<clipPath id="clip0_10_177">
<rect width="625" height="351" fill="white"/>
</clipPath>
</defs>
</svg>
